<svg xmlns="http://www.w3.org/2000/svg" xmlns:xlink="http://www.w3.org/1999/xlink" width="53" height="61" viewBox="0 0 53 61">
  <defs>
    <rect id="rect-1" width="53" height="61" x="0" y="0"/>
    <mask id="mask-2" maskContentUnits="userSpaceOnUse" maskUnits="userSpaceOnUse">
      <rect width="53" height="61" x="0" y="0" fill="black"/>
      <use fill="white" xlink:href="#rect-1"/>
    </mask>
  </defs>
  <g>
    <use fill="none" xlink:href="#rect-1"/>
    <g mask="url(#mask-2)">
      <path fill="rgb(51,51,51)" fill-rule="evenodd" d="M9.16853333 26.6875H7.57142639c-1.0410614 0-1.89285278-.85781097-1.89285278-1.90625v-11.4375c0-1.04843712.85179138-1.90625 1.89285278-1.90625h1.59710694C12.09062195 4.70605469 18.73928833 0 26.5 0c7.76071167 0 14.40937805 4.70605469 17.33148193 11.4375h1.59709168c1.04107666 0 1.89285278.85781288 1.89285278 1.90625v11.4375c0 1.04843903-.85177612 1.90625-1.89285278 1.90625h-1.59709168C40.90937805 33.41894531 34.26071167 38.125 26.5 38.125c-7.76071167 0-14.40937805-4.70605469-17.33146667-11.4375zm8.81361389-15.25c-3.13504029 0-5.67857361 2.13261795-5.67857361 4.765625V19.0625c0 6.31445313 5.08705139 11.4375 11.35714722 11.4375h5.6785736c6.27008057 0 11.35713196-5.12304688 11.35713196-11.4375v-2.859375c0-2.63300705-2.54351806-4.765625-5.6785736-4.765625H17.98214721zm2.83927917 13.34375l1.41964722-4.2890625L26.5 19.0625l-4.2589264-1.4296875-1.4196472-4.2890625-1.41964723 4.2890625L15.14285278 19.0625l4.2589264 1.4296875 1.41964721 4.2890625zM26.5 41.9375c4.51919556 0 8.71897888-1.34628677 12.2562561-3.64570236C46.741745 39.1376953 53 45.86914063 53 54.13749694V55.28125C53 58.43847656 50.45648193 61 47.3214264 61h-9.46427918v-7.625c0-2.10878754-1.69174195-3.8125-3.78572083-3.8125H18.92857361c-2.09397888 0-3.78572083 1.70371246-3.78572083 3.8125V61H5.67857361C2.54353333 61 0 58.43847656 0 55.28125v-1.14375305c0-8.26835632 6.258255-14.99980164 14.2437439-15.84569931C17.78102112 40.59121323 21.98080444 41.9375 26.5 41.9375zm-7.5714264 13.34375c0-1.04843903.85179139-1.90625 1.8928528-1.90625 1.04107665 0 1.89286803.85781097 1.89286803 1.90625V61h-3.78572082v-5.71875zm13.25-1.90625c-1.0410614 0-1.89285277.85781097-1.89285277 1.90625s.85179138 1.90625 1.89285278 1.90625c1.04107666 0 1.89286804-.85781097 1.89286804-1.90625s-.85179138-1.90625-1.89286804-1.90625z"/>
    </g>
  </g>
</svg>
