<svg xmlns="http://www.w3.org/2000/svg" xmlns:xlink="http://www.w3.org/1999/xlink" width="35" height="35" viewBox="0 0 35 35">
  <defs>
    <rect id="rect-1" width="35" height="35" x="0" y="0"/>
    <mask id="mask-2" maskContentUnits="userSpaceOnUse" maskUnits="userSpaceOnUse">
      <rect width="35" height="35" x="0" y="0" fill="black"/>
      <use fill="white" xlink:href="#rect-1"/>
    </mask>
  </defs>
  <g>
    <use fill="none" xlink:href="#rect-1"/>
    <g mask="url(#mask-2)">
      <path fill="rgb(51,51,51)" fill-rule="evenodd" d="M21.83676147 19.56188965C20.60742187 20.51190185 18.81427002 21.89764405 17.5 21.875c-1.31427002.02264404-3.10742188-1.36309814-4.33676147-2.31311035-.25408936-.1963501-.48410035-.3741455-.68081665-.51696778-9.07128907-6.5830078-9.76171876-7.1640625-11.85351563-8.79785156C.23242187 9.9326172 0 9.4609375 0 8.95507813V7.65625C0 5.84472656 1.46972656 4.375 3.28125 4.375h28.4375C33.53027344 4.375 35 5.84472656 35 7.65625v1.29882813c0 .50585937-.23242188.984375-.62890625 1.29199218-2.09179688 1.640625-2.78222656 2.21484375-11.85351563 8.79785157-.1967163.14282226-.42672729.32061767-.68081665.51696777zM35 13.3642578c0-.33496093-.39648438-.53320312-.66308594-.32128906-1.53125 1.18945313-3.5546875 2.70703125-10.52734375 7.77246094-.21151733.15423584-.4484558.33752441-.70681762.53735351C21.6663208 22.46392822 19.5684204 24.08673096 17.5 24.06933594c-2.0588684.01159668-4.12261963-1.58081055-5.58184814-2.70678711-.26077271-.20123291-.50222779-.3875122-.72088624-.54711914C4.22460938 15.75 2.19433595 14.2392578.66308595 13.04980469.38964844 12.83789062 0 13.02929687 0 13.37109375V27.34375C0 29.15527344 1.46972656 30.625 3.28125 30.625h28.4375C33.53027344 30.625 35 29.15527344 35 27.34375V13.36425781z"/>
    </g>
  </g>
</svg>
