<svg xmlns="http://www.w3.org/2000/svg" xmlns:xlink="http://www.w3.org/1999/xlink" width="35.5" height="45" viewBox="0 0 35.5 45">
  <defs>
    <rect id="rect-1" width="35.5" height="45" x="0" y="0"/>
    <mask id="mask-2" maskContentUnits="userSpaceOnUse" maskUnits="userSpaceOnUse">
      <rect width="35.5" height="45" x="0" y="0" fill="black"/>
      <use fill="white" xlink:href="#rect-1"/>
    </mask>
  </defs>
  <g>
    <use fill="none" xlink:href="#rect-1"/>
    <g mask="url(#mask-2)">
      <path fill="rgb(51,51,51)" fill-rule="evenodd" d="M0 16.875c0 6.80389404 2.45819092 8.70391846 15.70150757 27.21710205.86898804 1.21051025 2.72790527 1.21057129 3.59698486 0C32.54180908 25.57891845 35 23.67889405 35 16.875 35 7.55517578 27.16500854 0 17.5 0 7.83499146 0 0 7.55517578 0 16.875zm24.79168701 0c0 3.88330078-3.2645874 7.03125-7.29168701 7.03125-4.0270996 0-7.2916565-3.14794922-7.2916565-7.03125S13.4729004 9.84375 17.5 9.84375s7.29168701 3.14794922 7.29168701 7.03125z"/>
    </g>
  </g>
</svg>
