<svg xmlns="http://www.w3.org/2000/svg" xmlns:xlink="http://www.w3.org/1999/xlink" width="35" height="35" viewBox="0 0 35 35">
  <defs>
    <rect id="rect-1" width="35" height="35" x="0" y="0"/>
    <mask id="mask-2" maskContentUnits="userSpaceOnUse" maskUnits="userSpaceOnUse">
      <rect width="35" height="35" x="0" y="0" fill="black"/>
      <use fill="white" xlink:href="#rect-1"/>
    </mask>
  </defs>
  <g>
    <use fill="none" xlink:href="#rect-1"/>
    <g mask="url(#mask-2)">
      <path fill="rgb(51,51,51)" fill-rule="evenodd" d="M34.00126953 24.73242187l-7.65625-3.28125c-.67188671-.28634286-1.45215394-.09406272-1.9140625.4716797l-3.390625 4.14257812c-5.32127045-2.5089275-9.60367015-6.79132721-12.11259765-12.11259766l4.14257812-3.390625c.5669693-.46113194.7594698-1.24229341.47167969-1.9140625l-3.28125-7.65625C9.9436101.2648147 9.15436283-.13411393 8.38085938.04169922l-7.109375 1.640625C.5270585 1.85422784-.00017157 2.51723384 0 3.28125 0 20.81542969 14.21191406 35 31.71875 35c.76427178.00049004 1.42764835-.52680928 1.59960938-1.27148438l1.640625-7.109375c.17466998-.7772169-.22722913-1.56896675-.95771485-1.88671875z"/>
    </g>
  </g>
</svg>
