<svg xmlns="http://www.w3.org/2000/svg" xmlns:xlink="http://www.w3.org/1999/xlink" width="65" height="65" viewBox="0 0 65 65">
  <defs>
    <rect id="rect-7" width="65" height="65" x="0" y="0"/>
    <mask id="mask-8" maskContentUnits="userSpaceOnUse" maskUnits="userSpaceOnUse">
      <rect width="65" height="65" x="0" y="0" fill="black"/>
      <use fill="white" xlink:href="#rect-7"/>
    </mask>
    <path id="path-9" fill-rule="evenodd" d="M0 0v65h65V0H0z"/>
    <mask id="mask-10" maskContentUnits="userSpaceOnUse" maskUnits="userSpaceOnUse">
      <rect width="65" height="65" x="0" y="0" fill="black"/>
      <use fill="white" xlink:href="#path-9"/>
    </mask>
    <rect id="rect-11" width="62.631" height="62.898" x="1.185" y="1.051"/>
    <path id="path-12" fill-rule="evenodd" d="M48.34991455 14.36500168c0 .70827484-.17822266 1.36163711-.46844482 1.96232605 4.35949707 4.18353653 6.85076904 9.98198318 6.85076904 16.04379654 0 4.12301635-1.14086914 8.10818481-3.28027344 11.59576988.8494873.96043396 1.37060547 2.21448517 1.37060547 3.5895691 0 2.97655486-2.42401123 5.40172576-5.40509033 5.40172576-1.4109497 0-2.69299317-.54577637-3.65570068-1.43448639C40.35375977 53.52861595 36.48181152 54.60336113 32.5 54.60336113c-9.62225342 0-18.20672607-6.30836487-21.14520264-15.40836144-2.00378418-.02913665-3.62652588-1.66197967-3.62652588-3.6725006 0-1.62723923 1.07476807-3.00120545 2.54730225-3.48197938C10.45153809 19.93482971 20.35058593 10.133276 32.5 10.133276c2.70648193 0 5.3400879.48637962 7.84143066 1.42775917.8270874-1.02543068 2.08117676-1.70456887 3.50219727-1.70456887 2.4845581 0 4.50628662 2.02284432 4.50628662 4.50853539zm-4.50628662-2.64146805c1.45690918 0 2.64257812 1.18232727 2.64257812 2.64146614 0 1.45801735-1.18566894 2.64034462-2.64257812 2.64034462s-2.6414795-1.18232727-2.6414795-2.64034462c0-1.45913887 1.18457032-2.64146614 2.6414795-2.64146614zm6.14025879 31.07336235c-.76428223-.4146576-1.6373291-.64888-2.56634522-.64888-2.97991943 0-5.40509033 2.4251709-5.40509033 5.40844726 0 .89431.2218628 1.73482514.60742188 2.47896576C39.54693604 51.7993908 36.07165527 52.73628807 32.5 52.73628807c-8.77722168 0-16.61083984-5.7256012-19.33746338-14.0030117 1.1375122-.62982941 1.91864014-1.82448578 1.91864014-3.21077729 0-1.77069091-1.26416016-3.26008606-2.93847656-3.60189819C12.3814087 20.89525604 21.41864014 11.99922371 32.5 11.99922371c2.4128418 0 4.75622559.43819046 6.9920044 1.25517273-.09075928.35974121-.15350342.72620582-.15350342 1.11060333 0 2.48456764 2.02056884 4.50741387 4.50512695 4.50741387 1.1027832 0 2.10021973-.41465378 2.88354492-1.07474137 3.91119385 3.8237915 6.14135742 9.08094788 6.14135742 14.57344818 0 3.697155-1.00189209 7.2800026-2.88464355 10.42577553zM11.40411377 33.7092247c-.99853516 0-1.81213379.81698227-1.81213379 1.81327438 0 1.00189972.81359863 1.81215668 1.81213379 1.81215668.99969482 0 1.81219482-.81025696 1.81219482-1.81215668 0-.99629211-.8125-1.81327438-1.81219482-1.81327438zm36.0133667 17.38862038c-1.95336914 0-3.54138184-1.59026337-3.54138184-3.54138184 0-1.95111847 1.5880127-3.5413742 3.54138184-3.5413742 1.95336914 0 3.54138183 1.59025573 3.54138183 3.5413742s-1.5880127 3.54138184-3.54138183 3.54138184z"/>
    <mask id="mask-13" x="0" y="0" maskContentUnits="userSpaceOnUse" maskUnits="userSpaceOnUse">
      <rect width="65" height="65" x="0" y="0" fill="black"/>
      <use fill="white" xlink:href="#path-12"/>
    </mask>
  </defs>
  <g>
    <ellipse cx="32.5" cy="32.5" fill="rgb(51,51,51)" rx="7.845" ry="7.845"/>
    <ellipse cx="15.69" cy="57.155" fill="rgb(51,51,51)" rx="5.603" ry="5.603"/>
    <ellipse cx="47.069" cy="47.19" fill="rgb(51,51,51)" rx="4.483" ry="4.483"/>
    <ellipse cx="43.5" cy="14.353" fill="rgb(51,51,51)" rx="3.5" ry="3.647"/>
    <ellipse cx="15.5" cy="7" fill="rgb(51,51,51)" rx="4.5" ry="5"/>
    <ellipse cx="11.5" cy="35.5" fill="rgb(51,51,51)" rx="2.5" ry="2.5"/>
    <use fill="none" xlink:href="#rect-7"/>
    <g mask="url(#mask-8)">
      <use fill="none" xlink:href="#path-9"/>
      <g mask="url(#mask-10)">
        <g>
          <use fill="rgb(51,51,51)" xlink:href="#path-12"/>
          <use fill-opacity="0" stroke="rgb(51,51,51)" stroke-linecap="butt" stroke-linejoin="miter" stroke-width="2" mask="url(#mask-13)" xlink:href="#path-12"/>
        </g>
        <path fill="rgb(51,51,51)" fill-rule="evenodd" d="M19.9920044 3.66241455C23.94244384 1.9399128 28.14385985 1.0512066 32.5 1.0512066c17.26757813 0 31.31542969 14.05120659 31.31542969 31.31991386 0 17.26198006-14.04785157 31.31318856-31.31542969 31.31318856-4.14544678 0-8.1574707-.80465699-11.9465332-2.37138367-1.17785645 1.59138489-3.06286621 2.63586426-5.19219971 2.63586426-3.56262207 0-6.45965576-2.89922333-6.45965576-6.46525574 0-1.26638031.37207031-2.44870758 1.00531006-3.4449997-5.62475586-5.85784912-8.72235108-13.52223968-8.72235108-21.6674137 0-8.62482835 3.58172608-16.8787079 9.84191895-22.78474046-.42254639-.76767349-.66235352-1.6440525-.66235352-2.58655166 0-2.97094917 2.42071533-5.39612198 5.39611817-5.39612198 1.71466064 0 3.2421875.81025887 4.23175048 2.0587082zm1.4434204 55.9997387c3.51226807 1.4232788 7.22735596 2.1550827 11.0645752 2.1550827 16.2399292 0 29.4517212-13.21068573 29.4517212-29.4461155 0-16.24215316-13.211792-29.45284462-29.4517212-29.45284462-4.04455566 0-7.94677734.81025887-11.61932373 2.38931084.17706299.53344727.27685547 1.10387802.27685547 1.69224167 0 2.97767258-2.42071533 5.40172195-5.39727783 5.40172195-1.36499024 0-2.61010743-.51551628-3.56152344-1.35603332C6.37670898 16.59181213 3.0482788 24.30999756 3.0482788 32.37112045c0 7.59827614 2.86669922 14.75275612 8.0779419 20.24525643 1.1352539-.98508454 2.61456298-1.59025574 4.23504638-1.59025574 3.56158447 0 6.45965576 2.8981018 6.45965576 6.45741272 0 .7687912-.14007568 1.49499512-.38549805 2.17861938zM15.7602539 3.4707756c1.94775391 0 3.53356934 1.58465577 3.53356934 3.52905274 0 1.95112038-1.58581543 3.53577423-3.53356933 3.53577423-1.94775391 0-3.53240967-1.58465385-3.53240967-3.53577423 0-1.94439697 1.58465576-3.52905274 3.53240967-3.52905274zm-4.99493408 54.01275826c0 2.53948212 2.06097413 4.5981903 4.59594727 4.5981903 2.53387451 0 4.59594727-2.05870818 4.59594727-4.5981903 0-2.53276062-2.06207276-4.59146881-4.59594727-4.59146881-2.53497314 0-4.59594727 2.05870819-4.59594727 4.5914688z"/>
        <path fill="rgb(51,51,51)" fill-rule="evenodd" d="M23.65441895 32.37112427c0-4.87948609 3.96838378-8.84784699 8.84558105-8.84784699 4.8772583 0 8.84564209 3.9683609 8.84564209 8.84784699 0 4.87387848-3.96838379 8.84111786-8.84564209 8.84111786-4.87719727 0-8.84558105-3.96723938-8.84558105-8.84111786zm1.8637085-.00000382c0 3.84732819 3.13232421 6.98077774 6.98187255 6.98077774 3.850708 0 6.9819336-3.13344955 6.9819336-6.98077774 0-3.85404968-3.1312256-6.98637771-6.9819336-6.98637771-3.84954834 0-6.98187256 3.13232803-6.98187256 6.98637771z"/>
      </g>
    </g>
  </g>
</svg>
