<svg xmlns="http://www.w3.org/2000/svg" xmlns:xlink="http://www.w3.org/1999/xlink" height="50" width="50">
  <defs>
    <ellipse id="ellipse-1" opacity="1" rx="25" ry="25" cx="25" cy="25"/>
    <mask id="mask-2" maskUnits="userSpaceOnUse" maskContentUnits="userSpaceOnUse" x="0" y="0">
      <rect opacity="1" x="0" y="0" width="50" height="50" fill="black"/>
      <use xlink:href="#ellipse-1" fill="white"/>
    </mask>
    <rect id="rect-3" opacity="1" x="8" y="12" width="30" height="30"/>
    <mask id="mask-4" maskUnits="userSpaceOnUse" maskContentUnits="userSpaceOnUse">
      <rect opacity="1" x="0" y="0" width="50" height="50" fill="Black"/>
      <use xlink:href="#rect-3" fill="White"/>
    </mask>
  </defs>
  <g opacity="1">
    <g opacity="1">
      <use xlink:href="#ellipse-1" fill-opacity="0" stroke="rgb(88,171,222)" stroke-opacity="1" stroke-width="6" stroke-linecap="butt" stroke-linejoin="miter" mask="url(#mask-2)"/>
    </g>
    <g/>
    <g mask="url(#mask-4)">
      <g opacity="1">
        <g opacity="1">
          <path fill="rgb(88,171,222)" fill-opacity="1" opacity="1" fill-rule="evenodd" d="M36.88163149356842 12.4046630859375C37.20675814151764 12.4742431640625 37.527190923690796 12.794677734375 37.596885442733765 13.1187744140625C38.00440955162048 15.005676493048668 38.00440955162048 16.482421875 37.99891459941864 17.959167033433914C37.99891459941864 23.976013183593754 34.75063073635102 27.614318847656254 30.496868968009938 30.327941894531254L30.496868968009938 36.44732666015626C30.496868968009938 37.405883789062514 29.800841093063344 38.531066894531264 28.94368040561675 38.958618164062514L23.158815383911133 41.852600097656264C22.961220622062683 41.94191765785219 22.74814862012863 41.99197840690614 22.53145295381546 42.00000000000001C21.7547853589058 41.999907016754165 21.125143051147464 41.37041759490968 21.124862313270572 40.593750000000014L21.124862313270572 34.50915527343751L19.807993352413174 35.82568359375001C19.03918015956878 36.59655761718751 17.808714091777798 36.48120117187501 17.155028462409973 35.82568359375001L14.172360181808472 32.84289550781251C13.410871654748913 32.08163452148438 13.50642982125282 30.857231140136722 14.172360181808472 30.191528320312504L15.489229142665863 28.875L9.406590975821018 28.875C8.629923604428768 28.87490701675415 8.000280464319076 28.245417594909675 8 27.468750000000004C8.007812900294084 27.252099037170414 8.057884256821126 27.039061903953556 8.147399608977139 26.841613769531257L11.044008612632751 21.05181884765625C11.473504260182382 20.195800781250004 12.599028676748276 19.50091552734375 13.556897819042202 19.5L19.663225591182705 19.5C22.37123566865921 15.234557881951334 25.99854874610901 12 32.04731273651123 12C33.51798760890961 12 34.99507832527161 12 36.88163149356842 12.4046630859375ZM28.159180760383595 19.499622702598575C28.158971548080434 20.793965578079224 29.208019256591786 21.84343707561493 30.502363920211785 21.84375C31.796690702438354 21.8433119058609 32.845929741859436 20.794327676296234 32.846680760383606 19.5C32.84667897224426 18.205656230449677 31.797463178634644 17.15635460615158 30.50311851501464 17.15625C29.208775639533986 17.156145840883255 28.159388184547414 18.20527893304825 28.159180760383595 19.499622702598575Z"/>
        </g>
      </g>
    </g>
  </g>
</svg>